<svg width="46" height="52" viewBox="0 0 46 52" fill="none" xmlns="http://www.w3.org/2000/svg">
<path d="M19.5512 38.9986H4.60029V33.798H19.5512C21.0204 33.7986 22.4615 34.2537 23.7182 35.114C24.975 35.9743 25.9996 37.207 26.6809 38.6786C27.3622 40.1501 27.6743 41.8044 27.5834 43.4621C27.4925 45.1198 27.0021 46.7179 26.1652 48.083C25.3283 49.4481 24.1769 50.5284 22.8358 51.2066C21.4947 51.8848 20.0149 52.1353 18.5569 51.9307C17.0989 51.7262 15.7182 51.0745 14.5644 50.0462C13.4106 49.0179 12.5277 47.6523 12.0113 46.0974L16.3195 44.2694C16.5407 44.9358 16.9191 45.5211 17.4135 45.9619C17.908 46.4026 18.4997 46.682 19.1246 46.7697C19.7494 46.8574 20.3836 46.7502 20.9584 46.4595C21.5332 46.1689 22.0267 45.706 22.3854 45.121C22.7441 44.5359 22.9544 43.8511 22.9934 43.1406C23.0324 42.4302 22.8987 41.7212 22.6067 41.0905C22.3147 40.4598 21.8757 39.9315 21.3371 39.5627C20.7985 39.194 20.1809 38.9989 19.5512 38.9986ZM6.90043 23.3969H37.9524C39.4216 23.3975 40.8626 23.8526 42.1194 24.7129C43.3762 25.5732 44.4007 26.8059 45.082 28.2774C45.7634 29.749 46.0755 31.4032 45.9846 33.061C45.8937 34.7187 45.4032 36.3167 44.5663 37.6819C43.7295 39.047 42.5781 40.1272 41.237 40.8055C39.8958 41.4837 38.4161 41.7341 36.9581 41.5296C35.5 41.325 34.1193 40.6733 32.9655 39.6451C31.8117 38.6168 30.9288 37.2512 30.4125 35.6962L34.7207 33.8682C34.9419 34.5347 35.3202 35.12 35.8147 35.5607C36.3091 36.0015 36.9009 36.2808 37.5257 36.3686C38.1506 36.4563 38.7848 36.349 39.3596 36.0584C39.9344 35.7678 40.4279 35.3049 40.7866 34.7198C41.1453 34.1348 41.3555 33.45 41.3945 32.7395C41.4335 32.029 41.2998 31.32 41.0078 30.6894C40.7159 30.0587 40.2768 29.5303 39.7382 29.1616C39.1996 28.7928 38.582 28.5978 37.9524 28.5975H6.90043C5.07032 28.5975 3.31517 27.7756 2.02109 26.3126C0.727008 24.8497 0 22.8655 0 20.7966C0 18.7277 0.727008 16.7435 2.02109 15.2806C3.31517 13.8176 5.07032 12.9958 6.90043 12.9958H26.4517C27.0813 12.9955 27.6989 12.8004 28.2375 12.4316C28.7761 12.0629 29.2152 11.5345 29.5071 10.9039C29.7991 10.2732 29.9328 9.56419 29.8938 8.85372C29.8548 8.14326 29.6446 7.45841 29.2858 6.87337C28.9271 6.28834 28.4337 5.82543 27.8589 5.53481C27.2841 5.24418 26.6499 5.13693 26.025 5.22465C25.4001 5.31238 24.8084 5.59175 24.314 6.03249C23.8195 6.47323 23.4412 7.05854 23.2199 7.72499L18.9118 5.89959C19.5753 3.90467 20.8369 2.23616 22.4769 1.18479C24.1168 0.133416 26.031 -0.234171 27.8861 0.146078C29.7411 0.526326 31.4193 1.6303 32.6283 3.26566C33.8373 4.90101 34.5004 6.96406 34.5022 9.09534C34.5022 11.5091 33.654 13.8239 32.1442 15.5307C30.6345 17.2375 28.5868 18.1963 26.4517 18.1963H6.90043C6.29039 18.1963 5.70534 18.4703 5.27398 18.9579C4.84262 19.4456 4.60029 20.107 4.60029 20.7966C4.60029 21.4862 4.84262 22.1476 5.27398 22.6353C5.70534 23.1229 6.29039 23.3969 6.90043 23.3969Z" fill="white"/>
</svg>
