<svg width="45" height="52" viewBox="0 0 45 52" fill="none" xmlns="http://www.w3.org/2000/svg">
<path d="M22.5 6.76806L10.125 18.6146C7.67777 20.9575 6.01123 23.9426 5.33614 27.1922C4.66104 30.4419 5.0077 33.8102 6.33229 36.8712C7.65687 39.9323 9.89989 42.5486 12.7777 44.3893C15.6555 46.23 19.0389 47.2125 22.5 47.2125C25.9611 47.2125 29.3445 46.23 32.2223 44.3893C35.1001 42.5486 37.3431 39.9323 38.6677 36.8712C39.9923 33.8102 40.339 30.4419 39.6639 27.1922C38.9888 23.9426 37.3222 20.9575 34.875 18.6146L22.5 6.76806ZM22.5 0L38.41 15.2305C41.5566 18.2428 43.6995 22.0807 44.5677 26.2589C45.4358 30.4371 44.9902 34.7679 43.2873 38.7036C41.5843 42.6394 38.7004 46.0033 35.0003 48.37C31.3002 50.7368 26.9501 52 22.5 52C18.0499 52 13.6998 50.7368 9.9997 48.37C6.29961 46.0033 3.41573 42.6394 1.71275 38.7036C0.00976711 34.7679 -0.435824 30.4371 0.432321 26.2589C1.30047 22.0807 3.44336 18.2428 6.59001 15.2305L22.5 0Z" fill="white"/>
</svg>
